<svg id="Ebene_1" data-name="Ebene 1" xmlns="http://www.w3.org/2000/svg" viewBox="0 0 51.31 32.08"><defs><style>.cls-1{fill:#3c3c3b;}.cls-2,.cls-4{fill:none;stroke-miterlimit:10;stroke-width:2.5px;}.cls-2{stroke:#3c3c3b;}.cls-3{fill:#009fe3;}.cls-4{stroke:#009fe3;}</style></defs><title>ICON</title><path class="cls-1" d="M498,401.5a3.59,3.59,0,1,1-3.59,3.59A3.59,3.59,0,0,1,498,401.5m0-2.5a6.09,6.09,0,1,0,6.09,6.09A6.09,6.09,0,0,0,498,399Z" transform="translate(-452.79 -399)"/><path class="cls-1" d="M478.31,421.21a3.59,3.59,0,1,1-3.59,3.59,3.59,3.59,0,0,1,3.59-3.59m0-2.5a6.09,6.09,0,1,0,6.09,6.09,6.09,6.09,0,0,0-6.09-6.09Z" transform="translate(-452.79 -399)"/><path class="cls-1" d="M458.88,421.41a3.59,3.59,0,1,1-3.59,3.59,3.59,3.59,0,0,1,3.59-3.59m0-2.5A6.09,6.09,0,1,0,465,425a6.09,6.09,0,0,0-6.09-6.09Z" transform="translate(-452.79 -399)"/><line class="cls-2" x1="41.5" y1="9.41" x2="28.9" y2="22.01"/><line class="cls-2" x1="21.22" y1="9.41" x2="8.62" y2="22.01"/><line class="cls-2" x1="39.99" y1="25.82" x2="30.19" y2="25.82"/><path class="cls-3" d="M497.86,421.25a3.59,3.59,0,1,1-3.59,3.59,3.59,3.59,0,0,1,3.59-3.59m0-2.5a6.09,6.09,0,1,0,6.09,6.09,6.09,6.09,0,0,0-6.09-6.09Z" transform="translate(-452.79 -399)"/><path class="cls-3" d="M478.17,401.65a3.59,3.59,0,1,1-3.59,3.59,3.59,3.59,0,0,1,3.59-3.59m0-2.5a6.09,6.09,0,1,0,6.09,6.09,6.09,6.09,0,0,0-6.09-6.09Z" transform="translate(-452.79 -399)"/><line class="cls-4" x1="29.05" y1="9.41" x2="41.24" y2="21.6"/></svg>