<svg xmlns="http://www.w3.org/2000/svg" width="102" height="64" viewBox="0 0 102 64">
    <g fill="none" fill-rule="evenodd">
        <path fill="#FFF" d="M89.595 0c-6.852 0-12.406 5.608-12.406 12.523 0 6.916 5.554 12.52 12.406 12.52 6.85 0 12.405-5.604 12.405-12.52C102 5.608 96.444 0 89.595 0m0 5.143c4.03 0 7.31 3.312 7.31 7.38 0 4.07-3.28 7.377-7.31 7.377-4.034 0-7.31-3.308-7.31-7.377 0-4.068 3.276-7.38 7.31-7.38M50.999 38.957c-6.852 0-12.404 5.606-12.404 12.522C38.595 58.396 44.147 64 50.999 64c6.854 0 12.406-5.604 12.406-12.52 0-6.917-5.552-12.523-12.406-12.523m0 5.143c4.032 0 7.31 3.31 7.31 7.38 0 4.067-3.278 7.377-7.31 7.377s-7.309-3.31-7.309-7.378c0-4.069 3.277-7.38 7.309-7.38M12.407 38.957C5.556 38.957 0 44.56 0 51.478 0 58.393 5.556 64 12.407 64c6.85 0 12.404-5.607 12.404-12.522 0-6.917-5.554-12.521-12.404-12.521m0 5.143c4.03 0 7.309 3.309 7.309 7.378 0 4.068-3.28 7.378-7.309 7.378-4.033 0-7.312-3.31-7.312-7.378 0-4.07 3.28-7.378 7.312-7.378"/>
        <path stroke="#FFF" stroke-width="4.2" d="M82.703 19.478l-25.358 25.65M41.9 19.479l-25.36 25.65m63.128 7.742H59.955"/>
        <path fill="#00A3DA" d="M89.595 38.957c-6.852 0-12.406 5.606-12.406 12.522C77.19 58.396 82.743 64 89.595 64 96.448 64 102 58.396 102 51.48c0-6.917-5.552-12.523-12.405-12.523m0 5.143c4.03 0 7.31 3.31 7.31 7.38 0 4.067-3.28 7.377-7.31 7.377-4.03 0-7.31-3.31-7.31-7.378 0-4.069 3.28-7.38 7.31-7.38M50.998 0c-6.85 0-12.403 5.604-12.403 12.523 0 6.914 5.553 12.52 12.403 12.52 6.854 0 12.407-5.606 12.407-12.52C63.405 5.604 57.852 0 50.998 0m0 5.143c4.031 0 7.312 3.308 7.312 7.38 0 4.065-3.28 7.377-7.312 7.377-4.031 0-7.308-3.312-7.308-7.377 0-4.072 3.277-7.38 7.308-7.38"/>
        <path stroke="#00A3DA" stroke-width="4.2" d="M57.892 19.478L82.703 44.522"/>
    </g>
</svg>
